<?xml version="1.0" standalone="no"?>
<!DOCTYPE svg PUBLIC "-//W3C//DTD SVG 20010904//EN"
 "http://www.w3.org/TR/2001/REC-SVG-20010904/DTD/svg10.dtd">
<svg version="1.0" xmlns="http://www.w3.org/2000/svg"
 width="490.000000pt" height="490.000000pt" viewBox="0 0 490.000000 490.000000"
 preserveAspectRatio="xMidYMid meet">

<g transform="translate(0.000000,490.000000) scale(0.100000,-0.100000)"
fill="#000000" stroke="none">
<path d="M425 4878 c43 -149 86 -257 137 -341 l22 -38 -34 -27 c-83 -64 -154
-128 -152 -137 1 -6 13 -14 27 -18 21 -7 38 3 122 70 269 216 581 369 998 488
33 9 65 18 70 20 6 2 -94 4 -222 4 -182 1 -232 -2 -229 -11 20 -65 22 -63 -72
-103 -131 -57 -259 -122 -337 -174 -86 -57 -95 -60 -120 -51 -25 9 -94 146
-125 245 -12 39 -23 76 -25 83 -3 6 -18 12 -35 12 -28 0 -31 -3 -25 -22z"/>
<path d="M1776 4885 c6 -16 22 -19 48 -9 28 11 17 24 -19 24 -26 0 -33 -3 -29
-15z"/>
<path d="M1915 4890 c3 -5 15 -10 25 -10 10 0 22 5 25 10 4 6 -7 10 -25 10
-18 0 -29 -4 -25 -10z"/>
<path d="M3335 4881 c87 -31 209 -98 285 -155 81 -61 102 -62 122 -6 11 34 56
70 115 93 l43 17 24 -39 c62 -97 168 -121 298 -67 63 27 136 100 152 154 l7
22 -548 -1 c-538 0 -547 -1 -498 -18z"/>
<path d="M2270 4864 c-173 -15 -613 -84 -626 -97 -13 -13 9 -27 40 -27 19 0
85 9 147 20 172 30 408 58 556 65 l133 7 -6 -29 c-4 -23 -2 -32 11 -37 11 -4
14 -12 10 -25 -13 -42 2 -51 87 -51 50 0 77 -4 73 -10 -3 -5 -17 -10 -30 -10
-29 0 -49 -32 -41 -65 7 -28 61 -61 113 -71 51 -9 57 -14 37 -28 -13 -10 -15
-21 -11 -44 l7 -32 -61 0 c-72 0 -345 -18 -376 -25 -26 -6 -31 -36 -8 -55 11
-9 56 -9 211 0 108 7 226 10 263 6 77 -6 374 -44 412 -52 17 -3 32 1 43 11 20
20 21 14 -9 67 l-25 44 36 13 c34 12 36 15 31 47 -3 19 -2 34 3 34 5 0 14 9
21 21 15 29 -18 63 -82 84 -27 9 -49 18 -49 20 0 2 19 3 43 2 37 -2 42 1 45
21 2 13 -2 30 -8 38 -17 20 -2 18 70 -12 65 -26 94 -26 88 2 -4 19 -66 43
-248 96 -220 63 -273 70 -580 73 -151 1 -295 1 -320 -1z"/>
<path d="M3796 4563 c-3 -16 -8 -104 -11 -198 -3 -93 -11 -186 -16 -205 -7
-28 -27 -48 -94 -97 l-84 -61 -37 33 c-71 66 -331 185 -402 185 -56 0 -181 26
-229 48 -32 14 -70 17 -253 16 -288 -1 -466 -21 -705 -80 -147 -37 -277 -78
-389 -124 -55 -22 -103 -40 -108 -40 -27 0 -326 -162 -408 -220 -118 -84 -261
-221 -289 -277 -13 -26 -21 -61 -21 -91 0 -41 5 -54 30 -80 37 -39 125 -67
251 -80 207 -21 249 -12 249 56 0 32 10 85 25 130 8 22 65 -28 91 -80 13 -27
26 -48 28 -48 2 0 34 11 70 25 55 21 68 23 72 11 13 -35 -2 -61 -53 -90 -60
-34 -72 -53 -41 -65 20 -7 20 -9 -12 -31 -38 -27 -39 -27 -75 81 -14 42 -32
85 -40 95 -13 17 -14 15 -15 -28 0 -26 7 -82 16 -125 9 -43 18 -88 20 -100 5
-28 44 -49 104 -58 35 -5 54 -1 85 14 21 12 51 21 65 21 14 0 37 6 51 14 25
13 28 12 37 -9 6 -14 26 -28 49 -35 35 -12 103 -65 103 -81 0 -4 -10 -11 -21
-14 -18 -6 -20 -13 -16 -42 5 -30 4 -34 -11 -28 -9 4 -42 9 -72 12 -30 2 -78
7 -107 10 -72 7 -150 -18 -245 -79 -96 -61 -127 -97 -206 -235 -68 -120 -93
-184 -112 -288 -11 -63 -10 -76 7 -127 l19 -57 -47 25 c-74 37 -315 111 -456
140 -148 29 -366 44 -378 25 -4 -7 -5 -14 -3 -17 3 -2 74 -11 158 -19 174 -18
302 -43 428 -85 140 -47 184 -66 194 -84 20 -36 -5 -43 -160 -48 -247 -8 -626
-100 -598 -146 4 -7 27 -4 74 9 286 84 617 126 652 84 17 -20 37 -19 49 4 15
28 110 37 150 13 17 -9 31 -20 31 -24 0 -5 -26 -8 -57 -8 -80 0 -163 -38 -163
-75 0 -35 18 -39 83 -20 51 15 58 15 80 0 24 -16 211 -65 247 -65 14 0 31 -25
66 -96 25 -52 52 -98 60 -101 17 -6 44 14 44 33 0 28 42 123 65 148 18 20 34
26 65 26 57 0 182 44 244 85 74 50 212 167 253 215 20 23 48 46 62 52 14 6
111 11 216 12 211 2 229 6 448 101 l88 38 52 -16 c29 -9 79 -35 112 -56 65
-44 95 -51 96 -23 0 9 2 44 4 76 2 40 -4 82 -17 125 l-20 66 108 104 c120 114
127 118 256 120 46 2 101 6 123 9 34 6 40 11 40 32 0 17 -6 26 -20 28 -50 8
-45 15 35 51 95 42 463 166 610 205 121 33 255 53 409 62 l121 7 0 30 c0 28
-2 29 -32 23 -66 -13 -294 -27 -343 -20 -27 3 -69 15 -92 26 -23 11 -47 17
-53 13 -19 -12 -10 -34 20 -50 17 -9 30 -17 30 -19 0 -2 -34 -12 -77 -21 -79
-18 -368 -107 -462 -144 -54 -20 -55 -20 -68 -1 -10 14 -26 20 -50 20 l-36 0
24 26 c24 26 280 243 349 296 82 63 289 208 345 241 33 20 74 47 90 61 25 20
27 26 14 31 -17 6 -143 -61 -277 -147 -34 -23 -64 -39 -65 -37 -2 2 -7 18 -13
34 -5 17 -16 30 -24 30 -8 0 -18 -13 -21 -30 -4 -16 -7 -22 -8 -12 0 9 -8 17
-16 17 -17 0 -45 88 -44 139 0 20 7 54 15 76 l13 40 -3 -72 c-4 -82 5 -107 29
-83 9 9 19 47 24 90 5 41 9 65 10 53 2 -33 12 -53 26 -53 21 0 25 25 15 87
-12 73 -13 153 -1 153 11 0 18 -39 27 -143 7 -82 14 -96 34 -72 9 10 11 40 8
96 -4 62 -2 79 8 75 23 -9 33 17 24 59 -12 53 -12 55 4 55 8 0 16 6 19 14 4 9
14 12 27 9 16 -4 23 0 27 16 3 11 12 21 19 21 16 0 19 46 4 55 -6 4 -17 2 -24
-4 -9 -7 -16 -7 -23 0 -15 15 -33 2 -34 -24 0 -12 -3 -16 -6 -9 -6 14 -43 16
-43 2 0 -5 -10 -9 -23 -8 -57 5 -285 -151 -407 -278 -41 -42 -99 -100 -127
-127 -29 -28 -53 -53 -53 -58 0 -14 133 -150 194 -198 69 -55 99 -72 139 -80
26 -6 23 -10 -80 -94 -59 -48 -132 -108 -161 -132 -29 -25 -59 -45 -66 -45 -9
0 -13 19 -14 66 -1 51 -7 76 -26 108 -32 55 -103 126 -141 142 -17 7 -67 35
-111 62 -43 27 -119 62 -169 78 -81 26 -103 29 -225 29 -121 0 -144 -3 -220
-28 -103 -34 -204 -94 -208 -125 -5 -32 15 -28 104 23 179 102 390 111 604 26
81 -33 278 -168 311 -214 25 -35 29 -48 28 -106 -1 -36 -4 -79 -8 -96 -6 -29
-10 -31 -81 -42 -109 -17 -118 -16 -123 10 l-4 22 -2 -22 c0 -13 -6 -23 -12
-23 -11 0 -10 10 6 70 5 17 4 21 -3 11 -6 -8 -11 -9 -13 -3 -3 8 -32 4 -89 -9
-143 -34 -137 -33 -150 -9 -10 19 -8 26 17 52 15 16 49 45 76 65 26 19 47 39
47 44 0 5 -15 9 -33 9 -18 0 -38 5 -45 12 -6 6 -30 12 -54 14 -24 2 -56 6 -72
10 -21 5 -27 4 -22 -5 5 -7 -3 -11 -23 -11 -19 0 -41 -11 -62 -29 -17 -16 -43
-32 -57 -36 -14 -3 -47 -27 -74 -53 -39 -38 -49 -55 -51 -84 -1 -20 -6 -36
-12 -35 -6 1 -9 -30 -8 -83 2 -72 6 -89 28 -120 32 -44 16 -50 -49 -21 -124
54 -275 179 -277 229 -5 86 21 177 75 268 35 57 37 74 11 74 -14 0 -65 -48
-65 -62 0 -4 -10 -24 -22 -44 -13 -21 -32 -74 -44 -119 l-20 -80 -37 58 c-20
31 -41 57 -47 57 -21 0 -22 -32 -4 -73 25 -57 192 -228 272 -278 74 -47 219
-119 239 -119 8 0 16 -7 19 -15 10 -25 32 -17 126 45 49 33 100 60 114 60 14
0 42 9 64 20 62 32 168 69 269 96 113 29 117 29 124 4 7 -27 29 -25 57 5 14
15 35 25 51 25 43 0 43 -16 2 -37 -28 -13 -37 -24 -36 -39 2 -20 -4 -22 -120
-32 -113 -9 -199 -30 -265 -64 -29 -15 -26 -50 6 -58 22 -5 20 -8 -25 -52 -33
-32 -65 -52 -103 -64 -44 -14 -68 -31 -123 -86 -102 -105 -246 -169 -440 -194
-102 -14 -112 -13 -190 7 -45 11 -92 27 -104 35 -33 21 -38 55 -15 95 11 19
28 60 38 91 17 56 17 58 -2 79 -17 19 -26 21 -78 15 -70 -7 -183 -56 -221 -96
-21 -22 -25 -32 -17 -47 13 -24 98 -95 141 -117 29 -15 32 -21 27 -46 -17 -89
-130 -226 -256 -312 -100 -69 -143 -79 -334 -79 -178 1 -240 7 -230 23 4 5 15
8 25 5 11 -3 29 3 41 13 19 15 20 20 9 34 -10 12 -32 16 -92 16 -69 0 -79 2
-79 18 0 10 -6 24 -13 31 -20 21 188 10 233 -12 l35 -18 25 29 c14 16 62 57
106 90 45 34 100 83 123 109 48 55 124 211 171 355 31 92 32 100 21 162 -6 36
-14 71 -16 78 -4 9 8 13 39 13 36 0 50 6 71 29 24 26 31 28 76 23 33 -4 58 -1
76 8 16 8 35 15 44 15 9 0 24 9 34 20 10 11 20 18 23 15 3 -2 11 8 19 23 21
40 11 96 -26 138 -25 28 -30 40 -25 62 4 15 12 30 18 34 96 62 136 117 136
186 0 34 39 67 109 92 65 24 98 62 88 101 -3 10 0 23 7 28 21 17 267 43 348
36 50 -4 78 -3 83 4 3 6 21 11 40 11 42 0 62 20 110 112 54 102 69 85 50 -54
-7 -49 -5 -58 8 -58 23 0 92 84 123 151 26 55 45 72 58 50 4 -5 -3 -38 -14
-73 -11 -34 -20 -69 -20 -76 0 -22 56 14 97 64 44 52 188 179 283 249 126 92
403 209 625 264 70 17 278 51 313 51 8 0 12 9 10 22 -4 26 -22 28 -138 16
-187 -21 -511 -122 -688 -215 -35 -18 -65 -33 -66 -33 -2 0 -1 95 2 210 4 186
3 210 -11 210 -9 0 -18 -11 -21 -27z m-1821 -648 c56 -4 137 -37 185 -75 65
-51 50 -58 -38 -17 -39 18 -119 15 -131 -5 -6 -10 -17 -18 -25 -18 -18 0 -37
-23 -39 -48 -1 -19 -2 -19 -42 -1 -22 10 -49 19 -60 19 -39 0 -102 -37 -124
-73 -24 -39 -118 -108 -153 -113 -13 -1 -39 -6 -58 -10 l-35 -7 31 34 c53 60
108 132 127 169 36 68 48 80 108 111 72 36 130 50 179 42 19 -3 53 -7 75 -8z
m-47 -321 c39 -16 42 -34 4 -34 -15 0 -38 -10 -52 -22 -14 -13 -31 -23 -37
-24 -7 -1 -17 -2 -22 -2 -12 -3 -45 -126 -38 -143 3 -8 6 -5 6 8 1 12 6 25 12
29 22 13 -1 -47 -37 -102 -36 -54 -111 -111 -173 -132 -53 -18 -55 -15 -19 31
19 23 41 53 50 67 18 29 69 167 65 178 -4 15 37 108 57 127 43 42 110 49 184
19z m899 -536 c-3 -8 -6 -5 -6 6 -1 11 2 17 5 13 3 -3 4 -12 1 -19z m-1018
-213 c60 -21 70 -38 71 -116 0 -75 -32 -180 -81 -267 -33 -59 -69 -103 -56
-70 9 25 -19 37 -59 25 -55 -17 -83 22 -49 70 14 20 13 21 -68 31 l-82 11 -35
-30 c-19 -16 -51 -36 -70 -45 -45 -20 -85 -78 -105 -153 -16 -64 -20 -115 -4
-71 6 17 7 10 3 -25 -3 -27 -8 -53 -11 -57 -6 -11 -83 -10 -83 0 0 5 -11 14
-24 20 -19 8 -27 23 -36 67 -13 64 -6 105 37 215 91 229 238 381 401 415 63
13 186 3 251 -20z m405 -290 c-1 -13 -113 -73 -136 -74 -30 -2 -19 32 20 62
28 22 45 27 77 25 22 -2 40 -7 39 -13z m954 -57 c20 -38 42 -121 42 -156 l0
-34 -32 22 c-18 12 -57 32 -85 46 -29 13 -53 29 -53 35 0 19 40 78 63 94 30
21 52 19 65 -7z m-1578 -288 c0 -5 -9 -14 -20 -20 -19 -10 -20 -10 -8 9 13 22
28 28 28 11z m-30 -347 c2 -2 -2 -18 -9 -36 -7 -18 -16 -48 -20 -67 -4 -25
-12 -36 -27 -38 -16 -2 -23 5 -32 36 -20 67 -16 99 16 110 24 9 59 7 72 -5z"/>
<path d="M3589 4494 c-18 -22 -2 -44 46 -61 50 -17 50 -18 26 -42 -28 -28 -27
-49 3 -57 50 -12 91 41 49 65 -17 9 -17 11 2 24 29 22 7 63 -42 76 -52 15 -68
14 -84 -5z"/>
<path d="M388 4153 c-21 -5 -24 -36 -5 -50 6 -6 35 -18 62 -28 64 -23 72 -31
42 -39 -32 -8 -42 -34 -21 -57 21 -23 57 -24 78 -3 20 19 20 38 1 54 -20 17
-19 27 4 35 42 13 35 65 -8 65 -16 0 -50 7 -77 15 -27 8 -51 14 -54 14 -3 -1
-13 -3 -22 -6z"/>
<path d="M396 3953 c-5 -17 5 -36 44 -85 123 -151 199 -332 200 -470 0 -86 11
-101 89 -126 86 -28 111 -28 111 -2 0 12 -7 20 -17 20 -25 0 -127 33 -134 44
-4 4 -7 36 -7 70 -1 66 -12 125 -37 195 -15 44 -15 45 10 68 14 13 25 35 25
48 0 32 -35 43 -61 19 -22 -20 -19 -23 -81 71 -26 39 -67 92 -91 120 -41 46
-45 48 -51 28z"/>
<path d="M3568 3783 c-24 -27 -46 -76 -41 -90 10 -29 42 -12 63 33 20 40 21
48 8 60 -12 13 -16 12 -30 -3z"/>
<path d="M3461 3729 c-14 -41 -14 -86 0 -95 19 -11 38 19 45 74 6 48 5 52 -14
52 -14 0 -24 -10 -31 -31z"/>
<path d="M515 3601 c-9 -28 5 -51 31 -51 17 0 25 7 30 24 3 14 3 30 -1 35 -11
18 -53 13 -60 -8z"/>
<path d="M1175 3230 c-3 -5 2 -16 12 -25 106 -90 115 -96 128 -75 12 19 -6 49
-47 80 -42 30 -81 39 -93 20z"/>
<path d="M301 3130 c-108 -12 -161 -29 -161 -51 0 -22 -2 -22 115 -8 86 11
399 14 415 4 9 -6 4 -55 -7 -66 -5 -5 -24 -4 -43 1 -39 11 -103 13 -113 4 -15
-15 12 -37 97 -79 73 -35 102 -56 143 -104 60 -68 78 -103 93 -184 12 -61 29
-78 56 -56 11 9 14 22 10 41 -3 15 -2 28 3 28 5 0 12 -22 16 -49 12 -88 61
-98 67 -14 4 48 7 46 24 -12 7 -23 16 -31 38 -33 34 -4 45 6 63 55 14 42 16
78 7 145 -5 39 -11 47 -43 63 -76 39 -87 62 -51 108 23 28 36 27 83 -7 24 -18
29 -18 38 -6 7 11 8 7 3 -12 -4 -18 -2 -28 5 -28 6 0 11 5 11 10 0 6 13 8 31
5 24 -4 37 0 56 19 15 15 23 32 19 41 -3 9 0 18 8 21 19 7 8 52 -15 59 -10 4
-19 12 -19 18 -1 19 -50 50 -94 59 -153 31 -666 47 -855 28z"/>
<path d="M4855 3073 c-42 -37 -218 -156 -259 -174 -19 -9 -36 -6 -91 15 -80
33 -110 31 -110 -4 0 -21 6 -25 41 -31 53 -10 216 -91 272 -136 31 -25 47 -32
54 -25 17 17 -16 58 -78 98 -29 19 -54 38 -54 42 0 4 44 35 98 69 136 86 175
121 170 154 l-3 27 -40 -35z"/>
<path d="M283 2899 c-21 -21 -16 -32 46 -115 128 -172 237 -284 276 -284 34 0
21 32 -35 86 -32 31 -94 101 -137 156 -122 156 -136 171 -150 157z"/>
<path d="M2170 2805 c-62 -21 -152 -68 -164 -88 -16 -24 8 -46 32 -29 31 22
136 71 182 84 28 8 45 19 45 28 0 20 -40 22 -95 5z"/>
<path d="M4493 2634 c-10 -26 8 -44 69 -70 61 -26 161 -44 243 -44 69 0 95 9
95 31 0 17 -9 19 -93 19 -104 0 -192 19 -254 56 -49 29 -52 29 -60 8z"/>
<path d="M2650 2585 c0 -8 7 -15 15 -15 8 0 15 7 15 15 0 8 -7 15 -15 15 -8 0
-15 -7 -15 -15z"/>
<path d="M2794 2546 c-8 -22 3 -33 18 -18 9 9 9 15 0 24 -9 9 -13 7 -18 -6z"/>
<path d="M4033 2534 c-8 -21 28 -57 92 -88 56 -27 81 -31 104 -17 23 15 -1 38
-82 81 -85 44 -105 48 -114 24z"/>
<path d="M2515 2511 c-7 -12 12 -24 25 -16 11 7 4 25 -10 25 -5 0 -11 -4 -15
-9z"/>
<path d="M3922 2501 c-25 -15 -7 -46 48 -83 68 -46 118 -58 136 -33 19 26 9
39 -46 58 -27 10 -62 29 -78 42 -32 27 -40 29 -60 16z"/>
<path d="M720 2454 c-18 -21 -6 -41 39 -63 44 -23 71 -19 71 10 0 12 -17 27
-49 43 -42 21 -52 22 -61 10z"/>
<path d="M2615 2450 c-4 -6 -3 -16 3 -22 6 -6 12 -6 17 2 4 6 3 16 -3 22 -6 6
-12 6 -17 -2z"/>
<path d="M4447 2383 c-15 -15 -6 -44 17 -53 13 -5 34 -19 46 -32 36 -38 145
-209 174 -273 15 -33 31 -68 36 -77 14 -24 3 -23 -71 11 -121 54 -221 65 -227
25 -3 -19 5 -23 60 -34 84 -16 180 -53 234 -90 53 -35 84 -39 84 -10 0 29 -71
202 -121 295 -53 99 -131 207 -164 229 -25 17 -57 21 -68 9z"/>
<path d="M4870 2323 c-14 -10 -60 -36 -104 -59 -44 -22 -82 -46 -84 -52 -9
-29 34 -21 123 22 88 43 95 49 95 76 0 35 1 35 -30 13z"/>
<path d="M1846 2294 c-9 -25 10 -41 32 -28 24 15 21 38 -4 42 -13 2 -24 -4
-28 -14z"/>
<path d="M1707 2173 c-15 -14 -7 -43 12 -43 20 0 35 25 25 41 -6 11 -28 12
-37 2z"/>
<path d="M1837 2153 c-13 -12 -7 -33 8 -33 8 0 15 9 15 20 0 20 -11 26 -23 13z"/>
<path d="M2560 2079 c-154 -73 -412 -168 -505 -184 -58 -11 -74 -21 -68 -45 9
-34 84 -26 248 28 155 51 356 140 405 180 21 17 22 22 11 36 -17 21 -15 21
-91 -15z"/>
<path d="M4402 1875 c-26 -11 -33 -20 -30 -37 2 -17 9 -22 23 -20 109 17 113
16 170 -22 30 -20 55 -40 55 -44 0 -4 26 -35 58 -69 32 -35 54 -63 48 -63 -6
0 -37 16 -69 35 -100 60 -261 104 -294 80 -31 -23 -7 -42 84 -64 54 -14 135
-45 208 -82 96 -48 133 -62 183 -66 l62 -6 0 45 0 45 -47 13 c-41 11 -63 29
-153 122 -58 60 -118 115 -134 123 -44 23 -125 28 -164 10z"/>
<path d="M967 1874 c-4 -4 -7 -15 -7 -25 0 -9 -20 -44 -44 -76 -58 -79 -180
-163 -236 -163 -45 0 -51 -6 -39 -38 6 -17 14 -22 27 -18 10 4 63 -1 118 -9
125 -19 205 -19 249 -1 37 16 40 22 26 45 -8 13 -14 13 -38 2 -31 -15 -222
-16 -236 -2 -4 4 18 26 50 48 107 76 189 185 166 221 -11 19 -27 25 -36 16z"/>
<path d="M4017 1863 c-15 -15 -5 -41 29 -74 20 -18 54 -58 75 -86 43 -57 54
-63 64 -33 9 27 -16 69 -81 139 -53 58 -72 70 -87 54z"/>
<path d="M4173 1824 c12 -70 57 -91 57 -26 0 42 -14 62 -43 62 -17 0 -19 -5
-14 -36z"/>
<path d="M1264 1758 c-38 -42 -64 -86 -64 -107 0 -21 16 -27 35 -13 23 16 76
103 73 119 -5 25 -22 26 -44 1z"/>
<path d="M1281 1659 c-28 -45 -36 -78 -23 -91 16 -16 46 13 60 59 9 31 9 40
-2 52 -13 12 -18 9 -35 -20z"/>
<path d="M3620 1667 c0 -19 48 -61 97 -87 56 -29 148 -26 148 5 0 16 8 21 40
25 27 3 41 10 43 23 3 17 -10 22 -52 17 -10 -1 -39 6 -63 15 -34 13 -47 15
-56 5 -9 -9 -6 -16 12 -31 13 -10 29 -19 37 -19 8 0 14 -4 14 -10 0 -15 -62
-12 -101 4 -19 8 -45 26 -58 40 -26 28 -61 35 -61 13z"/>
<path d="M3387 1593 c-15 -15 -5 -34 26 -46 50 -21 93 -63 133 -128 20 -32 43
-59 50 -59 58 0 -67 174 -158 221 -42 21 -42 21 -51 12z"/>
<path d="M1147 1573 c-4 -3 -7 -47 -7 -97 0 -94 -21 -189 -55 -257 -46 -88
-156 -184 -245 -214 -29 -10 -50 -23 -50 -31 0 -17 35 -18 78 -3 26 9 34 7 51
-10 44 -44 208 -14 371 66 73 36 112 64 168 118 74 73 84 91 56 102 -11 4 -30
-10 -60 -45 -80 -92 -224 -171 -375 -207 -71 -16 -135 -19 -143 -6 -3 4 21 28
52 53 129 100 191 221 200 390 2 53 2 108 -2 122 -6 25 -25 34 -39 19z"/>
<path d="M2371 1554 c-63 -17 -136 -55 -176 -91 -15 -15 -41 -55 -57 -90 l-30
-63 -54 49 c-54 49 -108 74 -189 87 -38 5 -44 2 -112 -55 -161 -135 -263 -277
-263 -365 0 -55 25 -134 73 -228 36 -71 46 -83 70 -86 22 -3 27 1 27 17 0 12
-4 21 -8 21 -13 0 -88 148 -102 200 -19 69 -14 106 24 168 38 62 178 207 223
230 15 8 32 21 36 28 20 34 115 4 183 -58 29 -27 71 -78 94 -113 41 -65 70
-83 70 -44 0 12 -9 36 -20 54 l-20 33 35 62 c19 34 35 70 35 80 0 49 139 118
257 127 60 5 80 2 127 -18 44 -18 58 -29 62 -48 11 -50 17 -65 51 -138 48
-104 50 -124 14 -223 -16 -47 -26 -89 -22 -93 16 -16 40 6 60 54 21 47 23 49
64 50 23 1 52 3 65 4 55 6 155 -98 173 -180 11 -50 10 -66 -6 -131 -16 -64
-25 -80 -71 -128 -53 -54 -154 -118 -207 -132 -38 -9 -44 -30 -17 -52 20 -16
22 -27 21 -95 -1 -50 -8 -94 -21 -127 -27 -68 -87 -177 -122 -222 l-30 -38 69
0 68 0 65 69 c61 65 119 103 108 70 -3 -8 -2 -24 3 -35 6 -19 3 -23 -22 -28
-21 -4 -29 -11 -29 -27 0 -12 -8 -28 -17 -35 -16 -12 -8 -13 55 -14 57 0 72 3
72 15 0 9 9 15 21 15 18 0 19 -2 9 -15 -11 -13 -2 -15 74 -15 50 0 86 4 86 10
0 20 146 156 194 180 26 14 62 37 78 53 31 27 39 31 71 27 10 -1 24 3 30 8 7
6 26 12 42 14 19 2 33 11 40 25 13 31 61 50 86 35 10 -7 36 -11 56 -10 60 2
147 -29 200 -71 61 -48 155 -150 200 -218 l36 -53 348 0 349 0 -1 63 c0 59 -1
61 -16 39 -16 -22 -16 -22 -61 40 -24 35 -58 77 -74 95 l-30 31 47 7 c25 4 66
5 91 1 l44 -6 0 179 0 178 -72 11 c-40 6 -88 13 -106 16 -43 5 -127 48 -176
89 -30 25 -39 41 -42 70 -2 31 -14 47 -68 98 -36 33 -68 68 -70 77 -3 9 -33
34 -67 55 l-61 39 33 36 c19 20 36 39 38 42 2 3 6 0 8 -7 2 -7 21 -15 41 -19
20 -4 68 -22 106 -40 39 -19 76 -34 83 -34 27 0 11 29 -29 53 -50 29 -176 70
-189 61 -6 -3 -17 0 -26 8 -12 10 -49 12 -147 9 -122 -3 -138 -1 -211 24 -44
15 -92 27 -107 26 -15 -1 -53 8 -85 19 -32 11 -65 20 -75 20 -32 0 -68 23 -68
43 0 14 -4 17 -17 12 -44 -19 -74 -17 -111 8 -64 43 -218 44 -304 0 -25 -12
-34 -11 -88 11 -35 15 -62 21 -66 15 -8 -13 15 -39 44 -50 26 -10 21 -29 -8
-29 -11 0 -42 -9 -69 -20 -56 -22 -77 -18 -132 22 -30 23 -31 23 -45 4 -13
-19 -14 -19 -14 5 0 35 -51 135 -94 185 -63 73 -207 103 -335 68z m1109 -258
c0 -3 -4 -8 -10 -11 -5 -3 -10 -1 -10 4 0 6 5 11 10 11 6 0 10 -2 10 -4z
m-590 -81 c11 -3 20 -15 20 -26 0 -16 -7 -19 -55 -19 -53 0 -55 1 -55 28 0 15
3 37 6 49 l6 23 29 -24 c16 -14 38 -27 49 -31z m693 -98 c22 -8 23 -53 1 -61
-10 -4 -25 1 -34 9 -15 13 -22 14 -38 4 -27 -17 -54 -4 -50 23 4 32 66 63 88
44 8 -7 23 -16 33 -19z m156 17 c2 -2 2 -7 -2 -10 -3 -3 -16 2 -29 11 l-23 17
25 -7 c14 -4 27 -9 29 -11z m-612 -21 c14 -30 11 -38 -12 -30 -15 6 -22 57 -7
57 4 0 13 -12 19 -27z m96 -78 c-3 -9 -8 -14 -10 -11 -3 3 -2 9 2 15 9 16 15
13 8 -4z m-33 -45 c0 -5 -2 -10 -4 -10 -3 0 -8 5 -11 10 -3 6 -1 10 4 10 6 0
11 -4 11 -10z m-18 -268 c-3 -22 2 -31 22 -41 22 -12 29 -12 50 3 28 18 36 20
36 8 0 -5 -10 -14 -22 -21 -22 -10 -22 -11 -2 -6 24 6 37 -14 24 -35 -6 -10
-21 -5 -64 21 -49 30 -55 38 -56 67 0 17 4 32 8 32 5 0 7 -13 4 -28z m58 23
c0 -2 -10 -9 -22 -15 -22 -11 -22 -10 -4 4 21 17 26 19 26 11z m1304 -29 c-11
-38 -34 -66 -54 -66 -11 0 -20 2 -20 4 0 2 -3 11 -6 20 -4 10 5 27 25 45 36
34 66 32 55 -3z m-1239 4 c3 -5 1 -10 -4 -10 -6 0 -11 5 -11 10 0 6 2 10 4 10
3 0 8 -4 11 -10z m46 -47 c13 -16 12 -17 -3 -4 -10 7 -18 15 -18 17 0 8 8 3
21 -13z m1287 -24 c1 -9 -9 -28 -23 -43 -14 -15 -25 -31 -25 -37 0 -5 -11 -9
-25 -9 -21 0 -25 5 -25 28 0 53 89 107 98 61z m-597 -29 c10 -6 19 -19 19 -28
0 -11 8 -18 22 -19 37 -3 52 -49 23 -73 -13 -10 -19 -10 -33 4 -10 9 -25 16
-33 16 -25 0 -39 22 -39 60 0 50 8 57 41 40z m593 -193 c9 -15 7 -21 -9 -33
-17 -13 -21 -12 -39 5 -16 17 -17 22 -6 36 16 19 39 16 54 -8z m-887 7 c-3 -3
-12 -4 -19 -1 -8 3 -5 6 6 6 11 1 17 -2 13 -5z m801 -19 c6 -14 16 -25 21 -25
6 0 15 -8 20 -19 16 -29 -17 -61 -60 -60 -19 1 -26 3 -17 6 16 4 15 7 -2 36
-31 51 -25 83 16 86 6 1 16 -10 22 -24z m-678 -15 c0 -5 -7 -7 -15 -4 -8 4
-15 8 -15 10 0 2 7 4 15 4 8 0 15 -4 15 -10z m599 -75 c13 4 21 2 21 -5 0 -13
-88 -11 -96 2 -3 4 2 8 10 8 9 0 16 6 16 13 1 7 6 4 15 -6 9 -13 20 -17 34
-12z m-1451 -167 c5 -7 13 -24 17 -38 6 -24 6 -24 -19 5 -14 17 -25 33 -26 38
0 11 17 8 28 -5z"/>
<path d="M3561 1561 c-9 -6 -8 -17 5 -52 22 -56 31 -66 46 -51 8 8 7 22 -6 56
-20 51 -26 58 -45 47z"/>
<path d="M4370 1546 c0 -20 11 -30 63 -56 35 -17 92 -36 125 -43 34 -6 62 -14
62 -18 0 -15 -87 -19 -168 -8 -130 17 -127 17 -127 -11 0 -20 8 -26 45 -38 57
-18 247 -20 277 -4 28 16 148 0 210 -28 l44 -19 -3 32 c-3 30 -7 33 -68 54
-36 12 -60 22 -54 22 18 1 26 32 13 47 -8 9 -34 14 -78 14 -84 0 -180 21 -253
54 -71 33 -88 33 -88 2z"/>
<path d="M1036 1465 c-27 -49 -88 -77 -151 -69 -38 6 -47 4 -43 -7 2 -8 22
-20 44 -28 32 -11 47 -11 84 -1 55 15 120 76 120 114 0 39 -31 34 -54 -9z"/>
<path d="M2303 1281 c-116 -73 41 -229 235 -233 170 -4 181 135 17 220 -70 36
-204 43 -252 13z m317 -147 c0 -8 -4 -14 -10 -14 -5 0 -10 9 -10 21 0 11 5 17
10 14 6 -3 10 -13 10 -21z m-128 -26 c-9 -9 -15 -9 -24 0 -9 9 -7 12 12 12 19
0 21 -3 12 -12z"/>
<path d="M4530 1186 c0 -13 74 -80 138 -125 24 -17 37 -20 44 -13 14 14 4 27
-81 97 -67 54 -101 68 -101 41z"/>
<path d="M1882 1145 c-66 -29 -151 -106 -173 -157 -18 -42 9 -78 59 -78 77 1
215 90 247 160 17 37 17 41 1 65 -13 20 -24 25 -59 25 -23 -1 -57 -7 -75 -15z"/>
<path d="M2804 970 c-74 -30 -33 -214 60 -275 36 -24 87 -16 104 15 33 64 -19
206 -92 251 -34 21 -41 22 -72 9z"/>
<path d="M2110 909 c-67 -13 -147 -56 -177 -96 -20 -26 -28 -50 -31 -93 -4
-57 -3 -59 39 -105 82 -89 198 -134 349 -136 144 -1 210 23 315 115 46 42 48
46 34 63 -9 10 -22 36 -29 57 -19 58 -85 125 -155 157 -95 43 -238 59 -345 38z
m-100 -275 c0 -8 -5 -12 -10 -9 -6 4 -8 11 -5 16 9 14 15 11 15 -7z"/>
<path d="M877 803 c-16 -15 -3 -39 54 -101 126 -137 208 -386 209 -629 l0 -73
30 0 30 0 0 73 c0 269 -85 518 -225 664 -67 70 -84 81 -98 66z"/>
<path d="M77 663 c-13 -13 -6 -30 29 -71 75 -88 213 -142 230 -90 7 23 -16 48
-44 48 -23 0 -114 56 -146 89 -28 30 -55 39 -69 24z"/>
<path d="M1562 468 c-81 -118 -112 -224 -112 -380 0 -87 0 -88 25 -88 24 0 24
1 23 92 -1 139 21 217 94 334 43 69 46 84 18 84 -11 0 -31 -17 -48 -42z"/>
<path d="M0 263 c0 -35 9 -48 108 -151 99 -104 110 -112 145 -112 33 0 37 2
28 18 -14 26 -218 238 -252 263 l-29 20 0 -38z"/>
<path d="M3546 63 c-2 -10 -7 -28 -11 -40 -6 -20 -3 -23 25 -23 34 0 45 17 36
55 -7 29 -42 34 -50 8z"/>
<path d="M3650 48 c-27 -44 -26 -48 15 -48 29 0 36 4 41 25 15 59 -24 75 -56
23z"/>
</g>
</svg>
